<mxfile host="app.diagrams.net" modified="2023-08-24T23:08:14.416Z" agent="Mozilla/5.0 (Windows NT 10.0; Win64; x64) AppleWebKit/537.36 (KHTML, like Gecko) Chrome/116.0.0.0 Safari/537.36" etag="IPE-sg279QkfpH1jPNMU" version="21.6.9" type="github">
  <diagram name="PÃ¡gina-1" id="IIA1usoq-aFgkomBvUib">
    <mxGraphModel dx="1474" dy="496" grid="1" gridSize="10" guides="1" tooltips="1" connect="1" arrows="1" fold="1" page="1" pageScale="1" pageWidth="3300" pageHeight="4681" math="0" shadow="0">
      <root>
        <mxCell id="0" />
        <mxCell id="1" parent="0" />
        <mxCell id="R__oxT-rXaaob83uSNZH-1" value="0" style="ellipse;whiteSpace=wrap;html=1;" vertex="1" parent="1">
          <mxGeometry x="80" y="280" width="40" height="40" as="geometry" />
        </mxCell>
        <mxCell id="R__oxT-rXaaob83uSNZH-2" value="F" style="ellipse;whiteSpace=wrap;html=1;" vertex="1" parent="1">
          <mxGeometry x="1280" y="280" width="40" height="40" as="geometry" />
        </mxCell>
        <mxCell id="R__oxT-rXaaob83uSNZH-3" value="1" style="ellipse;whiteSpace=wrap;html=1;" vertex="1" parent="1">
          <mxGeometry x="640" y="80" width="40" height="40" as="geometry" />
        </mxCell>
        <mxCell id="R__oxT-rXaaob83uSNZH-4" value="" style="endArrow=classic;html=1;rounded=0;exitX=1;exitY=0;exitDx=0;exitDy=0;entryX=0;entryY=0.5;entryDx=0;entryDy=0;" edge="1" parent="1" source="R__oxT-rXaaob83uSNZH-1" target="R__oxT-rXaaob83uSNZH-3">
          <mxGeometry width="50" height="50" relative="1" as="geometry">
            <mxPoint x="230" y="240" as="sourcePoint" />
            <mxPoint x="440" y="120" as="targetPoint" />
          </mxGeometry>
        </mxCell>
        <mxCell id="R__oxT-rXaaob83uSNZH-5" value="l, &quot;_&quot;" style="edgeLabel;html=1;align=center;verticalAlign=middle;resizable=0;points=[];fontSize=14;" vertex="1" connectable="0" parent="R__oxT-rXaaob83uSNZH-4">
          <mxGeometry x="-0.2533" y="-3" relative="1" as="geometry">
            <mxPoint as="offset" />
          </mxGeometry>
        </mxCell>
        <mxCell id="R__oxT-rXaaob83uSNZH-6" value="" style="endArrow=classic;html=1;rounded=0;entryX=0.117;entryY=0.242;entryDx=0;entryDy=0;entryPerimeter=0;exitX=1;exitY=0.5;exitDx=0;exitDy=0;" edge="1" parent="1" source="R__oxT-rXaaob83uSNZH-3" target="R__oxT-rXaaob83uSNZH-2">
          <mxGeometry width="50" height="50" relative="1" as="geometry">
            <mxPoint x="480" y="120" as="sourcePoint" />
            <mxPoint x="530" y="70" as="targetPoint" />
          </mxGeometry>
        </mxCell>
        <mxCell id="R__oxT-rXaaob83uSNZH-7" value="&lt;font style=&quot;font-size: 14px;&quot;&gt;C - l, d, &quot;_&quot;&lt;/font&gt;" style="edgeLabel;html=1;align=center;verticalAlign=middle;resizable=0;points=[];" vertex="1" connectable="0" parent="R__oxT-rXaaob83uSNZH-6">
          <mxGeometry x="-0.135" y="-1" relative="1" as="geometry">
            <mxPoint x="30" y="15" as="offset" />
          </mxGeometry>
        </mxCell>
        <mxCell id="R__oxT-rXaaob83uSNZH-9" value="" style="curved=1;endArrow=classic;html=1;rounded=0;exitX=0.5;exitY=0;exitDx=0;exitDy=0;entryX=0.5;entryY=0;entryDx=0;entryDy=0;" edge="1" parent="1" source="R__oxT-rXaaob83uSNZH-3" target="R__oxT-rXaaob83uSNZH-3">
          <mxGeometry width="50" height="50" relative="1" as="geometry">
            <mxPoint x="660" y="70" as="sourcePoint" />
            <mxPoint x="710" y="20" as="targetPoint" />
            <Array as="points">
              <mxPoint x="620" y="40" />
              <mxPoint x="700" y="40" />
            </Array>
          </mxGeometry>
        </mxCell>
        <mxCell id="R__oxT-rXaaob83uSNZH-10" value="l, d, &quot;_&quot;" style="edgeLabel;html=1;align=center;verticalAlign=middle;resizable=0;points=[];fontSize=14;" vertex="1" connectable="0" parent="R__oxT-rXaaob83uSNZH-9">
          <mxGeometry x="0.003" y="-2" relative="1" as="geometry">
            <mxPoint y="-12" as="offset" />
          </mxGeometry>
        </mxCell>
        <mxCell id="R__oxT-rXaaob83uSNZH-11" value="2" style="ellipse;whiteSpace=wrap;html=1;" vertex="1" parent="1">
          <mxGeometry x="440" y="240" width="40" height="40" as="geometry" />
        </mxCell>
        <mxCell id="R__oxT-rXaaob83uSNZH-14" value="" style="endArrow=classic;html=1;rounded=0;entryX=0;entryY=0.5;entryDx=0;entryDy=0;exitX=1;exitY=0.5;exitDx=0;exitDy=0;" edge="1" parent="1" source="R__oxT-rXaaob83uSNZH-1" target="R__oxT-rXaaob83uSNZH-11">
          <mxGeometry width="50" height="50" relative="1" as="geometry">
            <mxPoint x="140" y="300" as="sourcePoint" />
            <mxPoint x="486" y="120" as="targetPoint" />
          </mxGeometry>
        </mxCell>
        <mxCell id="R__oxT-rXaaob83uSNZH-15" value="d" style="edgeLabel;html=1;align=center;verticalAlign=middle;resizable=0;points=[];fontSize=14;" vertex="1" connectable="0" parent="R__oxT-rXaaob83uSNZH-14">
          <mxGeometry x="-0.2533" y="-3" relative="1" as="geometry">
            <mxPoint y="-8" as="offset" />
          </mxGeometry>
        </mxCell>
        <mxCell id="R__oxT-rXaaob83uSNZH-18" value="" style="curved=1;endArrow=classic;html=1;rounded=0;entryX=0.5;entryY=0;entryDx=0;entryDy=0;exitX=0.5;exitY=0;exitDx=0;exitDy=0;" edge="1" parent="1" source="R__oxT-rXaaob83uSNZH-11" target="R__oxT-rXaaob83uSNZH-11">
          <mxGeometry width="50" height="50" relative="1" as="geometry">
            <mxPoint x="470" y="250" as="sourcePoint" />
            <mxPoint x="460" y="240" as="targetPoint" />
            <Array as="points">
              <mxPoint x="420" y="200" />
              <mxPoint x="500" y="200" />
            </Array>
          </mxGeometry>
        </mxCell>
        <mxCell id="R__oxT-rXaaob83uSNZH-19" value="d" style="edgeLabel;html=1;align=center;verticalAlign=middle;resizable=0;points=[];fontSize=14;" vertex="1" connectable="0" parent="R__oxT-rXaaob83uSNZH-18">
          <mxGeometry x="0.003" y="-2" relative="1" as="geometry">
            <mxPoint y="-12" as="offset" />
          </mxGeometry>
        </mxCell>
        <mxCell id="R__oxT-rXaaob83uSNZH-20" value="3" style="ellipse;whiteSpace=wrap;html=1;" vertex="1" parent="1">
          <mxGeometry x="640" y="240" width="40" height="40" as="geometry" />
        </mxCell>
        <mxCell id="R__oxT-rXaaob83uSNZH-25" value="" style="endArrow=classic;html=1;rounded=0;entryX=0;entryY=0.5;entryDx=0;entryDy=0;exitX=1;exitY=0.5;exitDx=0;exitDy=0;" edge="1" parent="1" source="R__oxT-rXaaob83uSNZH-11" target="R__oxT-rXaaob83uSNZH-20">
          <mxGeometry width="50" height="50" relative="1" as="geometry">
            <mxPoint x="520" y="250" as="sourcePoint" />
            <mxPoint x="570" y="200" as="targetPoint" />
          </mxGeometry>
        </mxCell>
        <mxCell id="R__oxT-rXaaob83uSNZH-26" value="&lt;span style=&quot;font-size: 14px;&quot;&gt;&quot;_&quot;&lt;/span&gt;" style="edgeLabel;html=1;align=center;verticalAlign=middle;resizable=0;points=[];" vertex="1" connectable="0" parent="R__oxT-rXaaob83uSNZH-25">
          <mxGeometry x="-0.1976" y="2" relative="1" as="geometry">
            <mxPoint as="offset" />
          </mxGeometry>
        </mxCell>
        <mxCell id="R__oxT-rXaaob83uSNZH-27" value="" style="endArrow=classic;html=1;rounded=0;entryX=0;entryY=0.5;entryDx=0;entryDy=0;exitX=1;exitY=1;exitDx=0;exitDy=0;" edge="1" parent="1" source="R__oxT-rXaaob83uSNZH-20" target="R__oxT-rXaaob83uSNZH-28">
          <mxGeometry width="50" height="50" relative="1" as="geometry">
            <mxPoint x="610" y="260" as="sourcePoint" />
            <mxPoint x="660" y="260" as="targetPoint" />
          </mxGeometry>
        </mxCell>
        <mxCell id="R__oxT-rXaaob83uSNZH-29" value="s" style="edgeLabel;html=1;align=center;verticalAlign=middle;resizable=0;points=[];" vertex="1" connectable="0" parent="R__oxT-rXaaob83uSNZH-27">
          <mxGeometry x="-0.0595" y="5" relative="1" as="geometry">
            <mxPoint as="offset" />
          </mxGeometry>
        </mxCell>
        <mxCell id="R__oxT-rXaaob83uSNZH-30" value="&quot;u&quot;" style="edgeLabel;html=1;align=center;verticalAlign=middle;resizable=0;points=[];fontSize=14;" vertex="1" connectable="0" parent="R__oxT-rXaaob83uSNZH-27">
          <mxGeometry x="-0.0707" y="4" relative="1" as="geometry">
            <mxPoint as="offset" />
          </mxGeometry>
        </mxCell>
        <mxCell id="R__oxT-rXaaob83uSNZH-28" value="4" style="ellipse;whiteSpace=wrap;html=1;" vertex="1" parent="1">
          <mxGeometry x="850" y="320" width="40" height="40" as="geometry" />
        </mxCell>
        <mxCell id="R__oxT-rXaaob83uSNZH-31" value="" style="endArrow=classic;html=1;rounded=0;exitX=1.02;exitY=0.44;exitDx=0;exitDy=0;exitPerimeter=0;entryX=0;entryY=0.5;entryDx=0;entryDy=0;" edge="1" parent="1" source="R__oxT-rXaaob83uSNZH-20" target="R__oxT-rXaaob83uSNZH-2">
          <mxGeometry width="50" height="50" relative="1" as="geometry">
            <mxPoint x="610" y="260" as="sourcePoint" />
            <mxPoint x="660" y="210" as="targetPoint" />
          </mxGeometry>
        </mxCell>
        <mxCell id="R__oxT-rXaaob83uSNZH-32" value="&lt;font style=&quot;font-size: 14px;&quot;&gt;&quot;s&quot;&lt;/font&gt;" style="edgeLabel;html=1;align=center;verticalAlign=middle;resizable=0;points=[];" vertex="1" connectable="0" parent="R__oxT-rXaaob83uSNZH-31">
          <mxGeometry x="-0.2594" y="-1" relative="1" as="geometry">
            <mxPoint as="offset" />
          </mxGeometry>
        </mxCell>
        <mxCell id="R__oxT-rXaaob83uSNZH-33" value="" style="endArrow=classic;html=1;rounded=0;exitX=1;exitY=0.5;exitDx=0;exitDy=0;entryX=0.061;entryY=0.783;entryDx=0;entryDy=0;entryPerimeter=0;" edge="1" parent="1" source="R__oxT-rXaaob83uSNZH-28" target="R__oxT-rXaaob83uSNZH-2">
          <mxGeometry width="50" height="50" relative="1" as="geometry">
            <mxPoint x="770" y="380" as="sourcePoint" />
            <mxPoint x="820" y="330" as="targetPoint" />
          </mxGeometry>
        </mxCell>
        <mxCell id="R__oxT-rXaaob83uSNZH-34" value="&lt;font style=&quot;font-size: 14px;&quot;&gt;&quot;l&quot;&lt;/font&gt;" style="edgeLabel;html=1;align=center;verticalAlign=middle;resizable=0;points=[];" vertex="1" connectable="0" parent="R__oxT-rXaaob83uSNZH-33">
          <mxGeometry x="-0.037" y="3" relative="1" as="geometry">
            <mxPoint as="offset" />
          </mxGeometry>
        </mxCell>
        <mxCell id="R__oxT-rXaaob83uSNZH-35" value="6" style="ellipse;whiteSpace=wrap;html=1;" vertex="1" parent="1">
          <mxGeometry x="560" y="440" width="40" height="40" as="geometry" />
        </mxCell>
        <mxCell id="R__oxT-rXaaob83uSNZH-36" value="" style="endArrow=classic;html=1;rounded=0;exitX=0.942;exitY=0.768;exitDx=0;exitDy=0;exitPerimeter=0;entryX=0.074;entryY=0.268;entryDx=0;entryDy=0;entryPerimeter=0;" edge="1" parent="1" source="R__oxT-rXaaob83uSNZH-11" target="R__oxT-rXaaob83uSNZH-35">
          <mxGeometry width="50" height="50" relative="1" as="geometry">
            <mxPoint x="450" y="280" as="sourcePoint" />
            <mxPoint x="540" y="330" as="targetPoint" />
          </mxGeometry>
        </mxCell>
        <mxCell id="R__oxT-rXaaob83uSNZH-37" value="&lt;font style=&quot;font-size: 14px;&quot;&gt;&quot;.&quot;&lt;/font&gt;" style="edgeLabel;html=1;align=center;verticalAlign=middle;resizable=0;points=[];" vertex="1" connectable="0" parent="R__oxT-rXaaob83uSNZH-36">
          <mxGeometry x="-0.2802" y="2" relative="1" as="geometry">
            <mxPoint x="-1" as="offset" />
          </mxGeometry>
        </mxCell>
        <mxCell id="R__oxT-rXaaob83uSNZH-38" value="" style="endArrow=classic;html=1;rounded=0;exitX=0.942;exitY=0.795;exitDx=0;exitDy=0;exitPerimeter=0;entryX=-0.046;entryY=0.426;entryDx=0;entryDy=0;entryPerimeter=0;" edge="1" parent="1" source="R__oxT-rXaaob83uSNZH-1" target="R__oxT-rXaaob83uSNZH-40">
          <mxGeometry width="50" height="50" relative="1" as="geometry">
            <mxPoint x="140" y="350" as="sourcePoint" />
            <mxPoint x="320" y="370" as="targetPoint" />
          </mxGeometry>
        </mxCell>
        <mxCell id="R__oxT-rXaaob83uSNZH-39" value="&lt;font style=&quot;font-size: 14px;&quot;&gt;&quot;.&quot;&lt;/font&gt;" style="edgeLabel;html=1;align=center;verticalAlign=middle;resizable=0;points=[];" vertex="1" connectable="0" parent="R__oxT-rXaaob83uSNZH-38">
          <mxGeometry x="-0.1473" y="5" relative="1" as="geometry">
            <mxPoint as="offset" />
          </mxGeometry>
        </mxCell>
        <mxCell id="R__oxT-rXaaob83uSNZH-40" value="5" style="ellipse;whiteSpace=wrap;html=1;" vertex="1" parent="1">
          <mxGeometry x="360" y="440" width="40" height="40" as="geometry" />
        </mxCell>
        <mxCell id="R__oxT-rXaaob83uSNZH-42" value="" style="endArrow=classic;html=1;rounded=0;exitX=1;exitY=0.5;exitDx=0;exitDy=0;entryX=0;entryY=0.5;entryDx=0;entryDy=0;" edge="1" parent="1" source="R__oxT-rXaaob83uSNZH-40" target="R__oxT-rXaaob83uSNZH-35">
          <mxGeometry width="50" height="50" relative="1" as="geometry">
            <mxPoint x="490" y="440" as="sourcePoint" />
            <mxPoint x="690" y="420" as="targetPoint" />
          </mxGeometry>
        </mxCell>
        <mxCell id="R__oxT-rXaaob83uSNZH-43" value="&lt;font style=&quot;font-size: 14px;&quot;&gt;d&lt;/font&gt;" style="edgeLabel;html=1;align=center;verticalAlign=middle;resizable=0;points=[];" vertex="1" connectable="0" parent="R__oxT-rXaaob83uSNZH-42">
          <mxGeometry x="-0.0917" y="-2" relative="1" as="geometry">
            <mxPoint y="-2" as="offset" />
          </mxGeometry>
        </mxCell>
        <mxCell id="R__oxT-rXaaob83uSNZH-44" value="" style="curved=1;endArrow=classic;html=1;rounded=0;entryX=0.558;entryY=0;entryDx=0;entryDy=0;exitX=0.5;exitY=0;exitDx=0;exitDy=0;entryPerimeter=0;" edge="1" parent="1" source="R__oxT-rXaaob83uSNZH-35" target="R__oxT-rXaaob83uSNZH-35">
          <mxGeometry width="50" height="50" relative="1" as="geometry">
            <mxPoint x="580" y="440" as="sourcePoint" />
            <mxPoint x="580" y="440" as="targetPoint" />
            <Array as="points">
              <mxPoint x="540" y="400" />
              <mxPoint x="620" y="400" />
            </Array>
          </mxGeometry>
        </mxCell>
        <mxCell id="R__oxT-rXaaob83uSNZH-45" value="d" style="edgeLabel;html=1;align=center;verticalAlign=middle;resizable=0;points=[];fontSize=14;" vertex="1" connectable="0" parent="R__oxT-rXaaob83uSNZH-44">
          <mxGeometry x="0.003" y="-2" relative="1" as="geometry">
            <mxPoint y="-12" as="offset" />
          </mxGeometry>
        </mxCell>
        <mxCell id="R__oxT-rXaaob83uSNZH-46" value="" style="endArrow=classic;html=1;rounded=0;entryX=0;entryY=1;entryDx=0;entryDy=0;exitX=0.894;exitY=0.266;exitDx=0;exitDy=0;exitPerimeter=0;" edge="1" parent="1" source="R__oxT-rXaaob83uSNZH-35" target="R__oxT-rXaaob83uSNZH-2">
          <mxGeometry width="50" height="50" relative="1" as="geometry">
            <mxPoint x="760" y="450" as="sourcePoint" />
            <mxPoint x="810" y="400" as="targetPoint" />
          </mxGeometry>
        </mxCell>
        <mxCell id="R__oxT-rXaaob83uSNZH-47" value="&lt;font style=&quot;font-size: 14px;&quot;&gt;C - d&lt;/font&gt;" style="edgeLabel;html=1;align=center;verticalAlign=middle;resizable=0;points=[];" vertex="1" connectable="0" parent="R__oxT-rXaaob83uSNZH-46">
          <mxGeometry x="-0.3182" y="-1" relative="1" as="geometry">
            <mxPoint as="offset" />
          </mxGeometry>
        </mxCell>
        <mxCell id="R__oxT-rXaaob83uSNZH-48" value="7" style="ellipse;whiteSpace=wrap;html=1;" vertex="1" parent="1">
          <mxGeometry x="800" y="440" width="40" height="40" as="geometry" />
        </mxCell>
        <mxCell id="R__oxT-rXaaob83uSNZH-49" value="" style="endArrow=classic;html=1;rounded=0;exitX=1;exitY=0.5;exitDx=0;exitDy=0;entryX=0;entryY=0.5;entryDx=0;entryDy=0;" edge="1" parent="1" source="R__oxT-rXaaob83uSNZH-35" target="R__oxT-rXaaob83uSNZH-48">
          <mxGeometry width="50" height="50" relative="1" as="geometry">
            <mxPoint x="700" y="490" as="sourcePoint" />
            <mxPoint x="750" y="440" as="targetPoint" />
          </mxGeometry>
        </mxCell>
        <mxCell id="R__oxT-rXaaob83uSNZH-50" value="&lt;font style=&quot;font-size: 14px;&quot;&gt;&quot;d&quot;, &quot;D&quot;&lt;/font&gt;" style="edgeLabel;html=1;align=center;verticalAlign=middle;resizable=0;points=[];" vertex="1" connectable="0" parent="R__oxT-rXaaob83uSNZH-49">
          <mxGeometry x="0.016" y="-2" relative="1" as="geometry">
            <mxPoint as="offset" />
          </mxGeometry>
        </mxCell>
        <mxCell id="R__oxT-rXaaob83uSNZH-51" value="9" style="ellipse;whiteSpace=wrap;html=1;" vertex="1" parent="1">
          <mxGeometry x="1160" y="440" width="40" height="40" as="geometry" />
        </mxCell>
        <mxCell id="R__oxT-rXaaob83uSNZH-53" value="" style="endArrow=classic;html=1;rounded=0;exitX=1;exitY=0.5;exitDx=0;exitDy=0;entryX=0;entryY=0.5;entryDx=0;entryDy=0;" edge="1" parent="1" source="R__oxT-rXaaob83uSNZH-48" target="R__oxT-rXaaob83uSNZH-59">
          <mxGeometry width="50" height="50" relative="1" as="geometry">
            <mxPoint x="920" y="459.58" as="sourcePoint" />
            <mxPoint x="980" y="460" as="targetPoint" />
          </mxGeometry>
        </mxCell>
        <mxCell id="R__oxT-rXaaob83uSNZH-54" value="&lt;font style=&quot;font-size: 14px;&quot;&gt;&quot;+&quot;, &quot;-&quot;&lt;/font&gt;" style="edgeLabel;html=1;align=center;verticalAlign=middle;resizable=0;points=[];" vertex="1" connectable="0" parent="R__oxT-rXaaob83uSNZH-53">
          <mxGeometry x="0.016" y="-2" relative="1" as="geometry">
            <mxPoint as="offset" />
          </mxGeometry>
        </mxCell>
        <mxCell id="R__oxT-rXaaob83uSNZH-55" value="" style="curved=1;endArrow=classic;html=1;rounded=0;entryX=0.538;entryY=0.002;entryDx=0;entryDy=0;entryPerimeter=0;exitX=0.5;exitY=0;exitDx=0;exitDy=0;" edge="1" parent="1" source="R__oxT-rXaaob83uSNZH-51" target="R__oxT-rXaaob83uSNZH-51">
          <mxGeometry width="50" height="50" relative="1" as="geometry">
            <mxPoint x="1180" y="440" as="sourcePoint" />
            <mxPoint x="1182" y="440" as="targetPoint" />
            <Array as="points">
              <mxPoint x="1140" y="400" />
              <mxPoint x="1220" y="400" />
            </Array>
          </mxGeometry>
        </mxCell>
        <mxCell id="R__oxT-rXaaob83uSNZH-56" value="d" style="edgeLabel;html=1;align=center;verticalAlign=middle;resizable=0;points=[];fontSize=14;" vertex="1" connectable="0" parent="R__oxT-rXaaob83uSNZH-55">
          <mxGeometry x="0.003" y="-2" relative="1" as="geometry">
            <mxPoint y="-12" as="offset" />
          </mxGeometry>
        </mxCell>
        <mxCell id="R__oxT-rXaaob83uSNZH-57" value="" style="endArrow=classic;html=1;rounded=0;entryX=0;entryY=1;entryDx=0;entryDy=0;exitX=0.956;exitY=0.342;exitDx=0;exitDy=0;exitPerimeter=0;" edge="1" parent="1" source="R__oxT-rXaaob83uSNZH-51" target="R__oxT-rXaaob83uSNZH-2">
          <mxGeometry width="50" height="50" relative="1" as="geometry">
            <mxPoint x="1120" y="450" as="sourcePoint" />
            <mxPoint x="1180" y="400" as="targetPoint" />
          </mxGeometry>
        </mxCell>
        <mxCell id="R__oxT-rXaaob83uSNZH-58" value="C - d" style="edgeLabel;html=1;align=center;verticalAlign=middle;resizable=0;points=[];fontSize=14;" vertex="1" connectable="0" parent="R__oxT-rXaaob83uSNZH-57">
          <mxGeometry x="-0.1169" y="-1" relative="1" as="geometry">
            <mxPoint as="offset" />
          </mxGeometry>
        </mxCell>
        <mxCell id="R__oxT-rXaaob83uSNZH-59" value="8" style="ellipse;whiteSpace=wrap;html=1;" vertex="1" parent="1">
          <mxGeometry x="1000" y="440" width="40" height="40" as="geometry" />
        </mxCell>
        <mxCell id="R__oxT-rXaaob83uSNZH-60" value="" style="endArrow=classic;html=1;rounded=0;exitX=1;exitY=0.5;exitDx=0;exitDy=0;entryX=0;entryY=0.5;entryDx=0;entryDy=0;" edge="1" parent="1" source="R__oxT-rXaaob83uSNZH-59" target="R__oxT-rXaaob83uSNZH-51">
          <mxGeometry width="50" height="50" relative="1" as="geometry">
            <mxPoint x="1050" y="460" as="sourcePoint" />
            <mxPoint x="1150" y="460" as="targetPoint" />
          </mxGeometry>
        </mxCell>
        <mxCell id="R__oxT-rXaaob83uSNZH-61" value="d" style="edgeLabel;html=1;align=center;verticalAlign=middle;resizable=0;points=[];fontSize=14;" vertex="1" connectable="0" parent="R__oxT-rXaaob83uSNZH-60">
          <mxGeometry x="-0.0056" y="-1" relative="1" as="geometry">
            <mxPoint as="offset" />
          </mxGeometry>
        </mxCell>
      </root>
    </mxGraphModel>
  </diagram>
</mxfile>
